<?xml version="1.0" encoding="UTF-8"?>
<svg width="286px" height="101px" viewBox="0 0 286 101" version="1.1" xmlns="http://www.w3.org/2000/svg" xmlns:xlink="http://www.w3.org/1999/xlink">
    <!-- Generator: Sketch 56.3 (81716) - https://sketch.com -->
    <title>Logo-Pfadi-Outline</title>
    <desc>Created with Sketch.</desc>
    <g id="00-Startseite" stroke="none" stroke-width="1" fill="none" fill-rule="evenodd">
        <g id="1.0-Startseite---Pfadi-entdecken-Kalender" transform="translate(-69.000000, -21.000000)" fill="#FFFFFF" fill-rule="nonzero">
            <g id="Logo-Pfadi-Outline" transform="translate(69.000000, 20.000000)">
                <g id="Group" transform="translate(0.000000, 30.000000)">
                    <path d="M25.23,8.1 L26.72,0.94 L29.64,0.94 C30.16,0.94 31.84,0.94 31.84,2.74 C31.84,3.35 31.59,4.38 30.72,4.94 C30.05,5.37 29.08,5.37 28.22,5.37 L27.27,5.37 L26.7,8.1 L25.23,8.1 Z M27.52,4.17 L27.97,4.17 C28.61,4.17 29.27,4.19 29.68,3.97 C30.27,3.65 30.38,3.1 30.38,2.86 C30.38,2.12 29.76,2.14 29.01,2.14 L27.95,2.14 L27.52,4.17 Z" id="Shape"></path>
                    <path d="M35.26,3.94 L34.27,3.94 L33.4,8.1 L32,8.1 L32.87,3.94 L32.08,3.94 L32.3,2.92 L33.08,2.92 L33.19,2.38 C33.35,1.62 33.52,0.82 34.81,0.82 C35.14,0.82 35.63,0.88 36.16,1.05 L35.89,2.06 C35.52,1.93 35.22,1.88 35.08,1.88 C34.7,1.88 34.64,2.13 34.56,2.55 L34.48,2.92 L35.47,2.92 L35.26,3.94 Z" id="Path"></path>
                    <path d="M35.82,4.27 C36.22,3.1 37.25,2.79 38.18,2.79 C40.01,2.79 40.15,3.87 40.15,4.18 C40.15,4.55 40.08,4.86 39.88,5.76 C39.86,5.84 39.76,6.28 39.75,6.37 C39.67,6.71 39.61,7.07 39.61,7.36 C39.61,7.66 39.65,7.84 39.72,8.1 L38.36,8.1 C38.29,7.86 38.28,7.77 38.26,7.51 C37.78,8.05 37.19,8.22 36.75,8.22 C35.95,8.22 35.26,7.67 35.26,6.71 C35.26,5.16 36.7,5.04 37.37,4.99 C37.92,4.94 38.43,4.89 38.71,4.79 C38.74,4.7 38.8,4.5 38.8,4.32 C38.8,3.94 38.45,3.79 38.08,3.79 C37.66,3.79 37.31,3.94 37.19,4.38 L35.82,4.27 Z M38.52,5.68 C38.43,5.71 38.39,5.72 38.19,5.74 C37.33,5.85 36.58,5.98 36.58,6.59 C36.58,6.86 36.77,7.17 37.22,7.17 C38.21,7.17 38.4,6.29 38.49,5.87 L38.52,5.68 Z" id="Shape"></path>
                    <path d="M44.24,8.1 L44.36,7.56 L44.34,7.54 C44.07,7.82 43.57,8.22 42.73,8.22 C41.62,8.22 40.93,7.44 40.93,6.05 C40.93,4.38 41.94,2.79 43.49,2.79 C44.53,2.79 44.93,3.43 45.06,3.62 L45.62,0.94 L47.02,0.94 L45.52,8.1 L44.24,8.1 L44.24,8.1 Z M43.26,7.16 C44.29,7.16 44.69,5.83 44.69,5.08 C44.69,4.42 44.29,3.87 43.69,3.87 C42.79,3.87 42.29,5.08 42.29,5.99 C42.29,6.63 42.63,7.16 43.26,7.16 Z" id="Shape"></path>
                    <path d="M49.34,2.92 L48.26,8.1 L46.86,8.1 L47.94,2.92 L49.34,2.92 Z M49.76,0.94 L49.49,2.21 L48.09,2.21 L48.36,0.94 L49.76,0.94 Z" id="Shape"></path>
                    <path d="M51.08,0.94 L52.48,0.94 L51.98,3.34 C52.29,3.1 52.72,2.79 53.43,2.79 C54.74,2.79 55.24,3.81 55.24,4.94 C55.24,6.8 54.08,8.22 52.67,8.22 C51.56,8.22 51.16,7.48 51.05,7.25 L51.03,7.25 L50.86,8.1 L49.58,8.1 L51.08,0.94 Z M52.46,7.16 C53.45,7.16 53.88,5.8 53.88,4.98 C53.88,4.22 53.43,3.79 52.9,3.79 C52.02,3.79 51.47,4.89 51.47,5.99 C51.47,6.58 51.85,7.16 52.46,7.16 Z" id="Shape"></path>
                    <path d="M57.3,5.94 C57.26,6.75 57.73,7.22 58.31,7.22 C59.01,7.22 59.32,6.66 59.4,6.5 L60.66,6.71 C60.05,7.96 59.02,8.22 58.3,8.22 C56.86,8.22 55.95,7.21 55.95,5.81 C55.95,4.51 56.78,2.79 58.84,2.79 C60.48,2.79 60.91,4.05 60.91,5.03 C60.91,5.17 60.9,5.6 60.82,5.94 L57.3,5.94 Z M59.64,5.09 C59.67,4.4 59.42,3.79 58.69,3.79 C57.88,3.79 57.54,4.6 57.44,5.09 L59.64,5.09 Z" id="Shape"></path>
                    <polygon id="Path" points="65.25 8.1 65.01 4.8 64.99 4.8 63.42 8.1 62.12 8.1 61.47 2.92 62.71 2.92 63.06 6.39 63.08 6.39 64.69 2.92 65.96 2.92 66.13 6.39 66.15 6.39 67.75 2.92 69.15 2.92 66.57 8.1"></polygon>
                    <path d="M70.49,5.94 C70.45,6.75 70.92,7.22 71.5,7.22 C72.2,7.22 72.51,6.66 72.59,6.5 L73.85,6.71 C73.24,7.96 72.21,8.22 71.49,8.22 C70.05,8.22 69.14,7.21 69.14,5.81 C69.14,4.51 69.97,2.79 72.03,2.79 C73.67,2.79 74.1,4.05 74.1,5.03 C74.1,5.17 74.09,5.6 74.01,5.94 L70.49,5.94 Z M72.83,5.09 C72.86,4.4 72.61,3.79 71.88,3.79 C71.07,3.79 70.73,4.6 70.63,5.09 L72.83,5.09 Z" id="Shape"></path>
                    <path d="M75.89,8.59 C75.88,8.86 75.98,9.2 76.65,9.2 C77.61,9.2 77.72,8.66 77.89,7.76 L77.93,7.53 L77.91,7.51 C77.73,7.69 77.21,8.12 76.43,8.12 C75.66,8.12 74.69,7.65 74.69,6.01 C74.69,3.98 75.89,2.79 77.18,2.79 C77.83,2.79 78.46,3.13 78.79,3.83 L78.81,3.83 L78.99,2.92 L80.31,2.92 L79.41,7.24 C79.01,9.16 78.79,10.2 76.62,10.2 C76.03,10.2 74.21,10.2 74.41,8.37 L75.89,8.59 Z M76.99,7.08 C77.89,7.08 78.41,5.96 78.41,5.02 C78.41,4.39 78.03,3.79 77.43,3.79 C76.44,3.79 76.06,5.31 76.06,5.87 C76.06,6.64 76.45,7.08 76.99,7.08 Z" id="Shape"></path>
                    <path d="M83.07,2.92 L82.43,5.99 C82.42,6 82.42,6.04 82.41,6.08 C82.36,6.31 82.31,6.52 82.31,6.67 C82.31,6.94 82.52,7.22 82.9,7.22 C83.46,7.22 83.89,6.71 83.95,6.64 C84.28,6.25 84.38,5.77 84.47,5.38 L84.98,2.92 L86.38,2.92 L85.3,8.1 L83.99,8.1 L84.14,7.42 L84.12,7.4 C83.58,7.93 82.93,8.22 82.27,8.22 C81.05,8.22 80.9,7.24 80.9,6.87 C80.9,6.61 80.94,6.38 81.06,5.81 L81.67,2.92 L83.07,2.92 L83.07,2.92 Z" id="Path"></path>
                    <path d="M89.13,2.92 L88.99,3.57 L89.01,3.59 C89.42,3.22 90,2.79 90.84,2.79 C91.87,2.79 92.21,3.51 92.21,4.13 C92.21,4.41 92.14,4.77 92.06,5.16 L91.44,8.1 L90.04,8.1 L90.66,5.15 C90.66,5.13 90.67,5.06 90.69,4.99 C90.71,4.91 90.73,4.81 90.73,4.79 C90.79,4.51 90.79,4.44 90.79,4.37 C90.79,3.84 90.34,3.79 90.19,3.79 C89.76,3.79 89.32,4.15 89.06,4.49 C88.8,4.85 88.74,5.18 88.57,5.97 L88.12,8.1 L86.72,8.1 L87.81,2.92 L89.13,2.92 L89.13,2.92 Z" id="Path"></path>
                    <path d="M94.22,8.59 C94.21,8.86 94.31,9.2 94.98,9.2 C95.94,9.2 96.05,8.66 96.22,7.76 L96.26,7.53 L96.24,7.51 C96.06,7.69 95.54,8.12 94.76,8.12 C93.99,8.12 93.02,7.65 93.02,6.01 C93.02,3.98 94.22,2.79 95.51,2.79 C96.16,2.79 96.79,3.13 97.12,3.83 L97.14,3.83 L97.32,2.92 L98.64,2.92 L97.74,7.24 C97.34,9.16 97.12,10.2 94.95,10.2 C94.36,10.2 92.54,10.2 92.74,8.37 L94.22,8.59 Z M95.32,7.08 C96.22,7.08 96.74,5.96 96.74,5.02 C96.74,4.39 96.36,3.79 95.76,3.79 C94.77,3.79 94.39,5.31 94.39,5.87 C94.39,6.64 94.78,7.08 95.32,7.08 Z" id="Shape"></path>
                    <path d="M103.34,5.71 C103.36,6.33 103.39,6.99 104.76,6.99 C105.26,6.99 106.12,6.86 106.12,6.11 C106.12,5.6 105.69,5.42 104.91,5.08 C103.67,4.54 102.8,4.16 102.8,2.92 C102.8,2.06 103.34,0.82 105.35,0.82 C106.72,0.82 107.95,1.41 108.06,2.98 L106.65,3.05 C106.57,2.22 106.01,1.99 105.34,1.99 C105.09,1.99 104.21,1.99 104.21,2.74 C104.21,3.25 104.69,3.46 105.51,3.81 C106.74,4.34 107.58,4.71 107.58,5.93 C107.58,6.98 106.77,8.22 104.75,8.22 C103.73,8.22 102.44,7.9 102.08,6.78 C101.95,6.37 101.93,5.97 101.94,5.78 L103.34,5.71 Z" id="Path"></path>
                    <path d="M113.29,6.37 C112.87,7.49 112.02,8.22 110.76,8.22 C109.18,8.22 108.61,7.08 108.61,6 C108.61,4.21 109.79,2.79 111.57,2.79 C112.98,2.79 113.58,3.67 113.66,4.53 L112.32,4.67 C112.3,4.48 112.22,3.83 111.48,3.83 C110.39,3.83 110,5.34 110,6.17 C110,6.84 110.4,7.12 110.79,7.12 C111.05,7.12 111.63,6.98 111.92,6.15 L113.29,6.37 Z" id="Path"></path>
                    <path d="M113.86,8.1 L115.36,0.94 L116.76,0.94 L116.23,3.49 C116.54,3.25 117.11,2.79 117.99,2.79 C119.11,2.79 119.35,3.65 119.35,4.1 C119.35,4.41 119.28,4.74 119.21,5.07 L118.58,8.1 L117.18,8.1 L117.82,5.01 C117.92,4.56 117.93,4.51 117.93,4.37 C117.93,4.02 117.7,3.79 117.33,3.79 C116.77,3.79 116.36,4.29 116.2,4.51 C115.94,4.88 115.88,5.15 115.69,6.05 L115.26,8.1 L113.86,8.1 Z" id="Path"></path>
                    <polygon id="Path" points="124.06 8.1 123.82 4.8 123.8 4.8 122.23 8.1 120.93 8.1 120.28 2.92 121.52 2.92 121.87 6.39 121.89 6.39 123.5 2.92 124.77 2.92 124.94 6.39 124.96 6.39 126.56 2.92 127.96 2.92 125.38 8.1"></polygon>
                    <path d="M129.29,5.94 C129.25,6.75 129.72,7.22 130.3,7.22 C131,7.22 131.31,6.66 131.39,6.5 L132.65,6.71 C132.04,7.96 131.01,8.22 130.29,8.22 C128.85,8.22 127.94,7.21 127.94,5.81 C127.94,4.51 128.77,2.79 130.83,2.79 C132.47,2.79 132.9,4.05 132.9,5.03 C132.9,5.17 132.89,5.6 132.81,5.94 L129.29,5.94 Z M131.64,5.09 C131.67,4.4 131.42,3.79 130.69,3.79 C129.88,3.79 129.54,4.6 129.44,5.09 L131.64,5.09 Z" id="Shape"></path>
                    <path d="M135.79,2.92 L134.71,8.1 L133.31,8.1 L134.39,2.92 L135.79,2.92 Z M136.21,0.94 L135.94,2.21 L134.54,2.21 L134.81,0.94 L136.21,0.94 Z" id="Shape"></path>
                    <polygon id="Path" points="136.06 7.15 138.9 4.01 136.58 4.01 136.81 2.92 140.88 2.92 140.71 3.75 137.84 6.96 140.34 6.96 140.1 8.1 135.86 8.1"></polygon>
                    <polygon id="Path" points="8.24 20.1 7.98 14.12 7.96 14.12 6.83 20.1 5.5 20.1 7 12.94 9.1 12.94 9.31 17.96 9.33 17.96 11.76 12.94 13.88 12.94 12.38 20.1 11.04 20.1 12.45 14.18 12.43 14.16 9.63 20.1 8.24 20.1"></polygon>
                    <path d="M16.97,14.79 C18.76,14.79 19.4,15.95 19.4,17.13 C19.4,18.7 18.33,20.22 16.44,20.22 C14.82,20.22 14.03,19.16 14.03,17.95 C14.03,16.59 14.74,14.79 16.97,14.79 Z M16.97,15.85 C15.77,15.85 15.42,17.31 15.42,17.93 C15.42,18.52 15.76,19.16 16.49,19.16 C17.5,19.16 18.01,17.9 18.01,16.95 C18.01,16.45 17.73,15.85 16.97,15.85 Z" id="Shape"></path>
                    <path d="M22.4,14.92 L21.76,17.99 C21.75,18 21.75,18.04 21.74,18.08 C21.69,18.31 21.64,18.52 21.64,18.67 C21.64,18.94 21.85,19.22 22.23,19.22 C22.79,19.22 23.22,18.71 23.28,18.64 C23.61,18.25 23.71,17.77 23.8,17.38 L24.31,14.92 L25.71,14.92 L24.63,20.1 L23.32,20.1 L23.47,19.42 L23.45,19.4 C22.91,19.93 22.26,20.22 21.6,20.22 C20.38,20.22 20.23,19.24 20.23,18.87 C20.23,18.61 20.27,18.38 20.39,17.81 L21,14.92 L22.4,14.92 Z" id="Path"></path>
                    <path d="M27.46,20.1 L26.42,14.92 L27.79,14.92 L28.16,17.18 C28.17,17.21 28.18,17.29 28.2,17.39 C28.25,17.71 28.31,18.03 28.33,18.4 L28.35,18.4 C28.38,18.31 28.41,18.26 28.52,18.06 L28.72,17.7 C28.8,17.54 28.92,17.32 29.05,17.1 L30.34,14.92 L31.85,14.92 L28.66,20.1 L27.46,20.1 L27.46,20.1 Z" id="Path"></path>
                    <path d="M33.16,17.94 C33.12,18.75 33.59,19.22 34.17,19.22 C34.87,19.22 35.18,18.66 35.26,18.5 L36.52,18.71 C35.91,19.96 34.88,20.22 34.16,20.22 C32.72,20.22 31.81,19.21 31.81,17.81 C31.81,16.51 32.64,14.79 34.7,14.79 C36.34,14.79 36.77,16.05 36.77,17.03 C36.77,17.17 36.76,17.6 36.68,17.94 L33.16,17.94 Z M35.5,17.09 C35.53,16.4 35.28,15.79 34.55,15.79 C33.74,15.79 33.4,16.6 33.3,17.09 L35.5,17.09 Z" id="Shape"></path>
                    <path d="M39.58,14.92 L39.44,15.52 L39.46,15.54 C39.7,15.3 40.25,14.79 41.06,14.79 C41.48,14.79 42.21,14.88 42.37,15.71 C42.7,15.23 43.4,14.79 44.19,14.79 C45.09,14.79 45.5,15.34 45.5,16 C45.5,16.25 45.43,16.61 45.37,16.93 L44.7,20.1 L43.3,20.1 L43.96,16.93 C43.97,16.9 43.99,16.8 44.01,16.71 C44.06,16.48 44.09,16.36 44.09,16.26 C44.09,16.08 44.01,15.79 43.57,15.79 C43.2,15.79 42.86,16.04 42.62,16.37 C42.34,16.76 42.2,17.39 42.13,17.75 L41.64,20.1 L40.23,20.1 L40.91,16.88 C40.98,16.52 41,16.43 41,16.26 C41,15.96 40.78,15.79 40.48,15.79 C40.05,15.79 39.7,16.14 39.53,16.37 C39.28,16.72 39.2,17.12 39.07,17.72 L38.57,20.1 L37.17,20.1 L38.26,14.92 L39.58,14.92 L39.58,14.92 Z" id="Path"></path>
                    <path d="M47.61,17.94 C47.57,18.75 48.04,19.22 48.62,19.22 C49.32,19.22 49.63,18.66 49.71,18.5 L50.97,18.71 C50.36,19.96 49.33,20.22 48.61,20.22 C47.17,20.22 46.26,19.21 46.26,17.81 C46.26,16.51 47.09,14.79 49.15,14.79 C50.79,14.79 51.22,16.05 51.22,17.03 C51.22,17.17 51.21,17.6 51.13,17.94 L47.61,17.94 Z M49.95,17.09 C49.98,16.4 49.73,15.79 49,15.79 C48.19,15.79 47.85,16.6 47.75,17.09 L49.95,17.09 Z" id="Shape"></path>
                    <path d="M54.03,14.92 L53.89,15.57 L53.91,15.59 C54.32,15.22 54.9,14.79 55.74,14.79 C56.77,14.79 57.11,15.51 57.11,16.13 C57.11,16.41 57.04,16.77 56.96,17.16 L56.34,20.1 L54.94,20.1 L55.56,17.15 C55.56,17.13 55.57,17.06 55.59,16.99 C55.61,16.91 55.63,16.81 55.63,16.79 C55.69,16.51 55.69,16.44 55.69,16.37 C55.69,15.84 55.24,15.79 55.09,15.79 C54.66,15.79 54.22,16.15 53.96,16.49 C53.7,16.85 53.64,17.18 53.47,17.97 L53.02,20.1 L51.62,20.1 L52.71,14.92 L54.03,14.92 L54.03,14.92 Z" id="Path"></path>
                    <path d="M58.3,14.92 L58.98,14.92 L59.15,14.09 L60.75,13.12 L60.38,14.92 L61.24,14.92 L61.02,15.94 L60.16,15.94 L59.71,18.13 C59.7,18.15 59.69,18.23 59.67,18.31 C59.61,18.56 59.59,18.68 59.59,18.8 C59.59,19.14 59.9,19.14 60.06,19.14 C60.15,19.14 60.47,19.11 60.52,19.11 L60.3,20.15 C60.05,20.2 59.85,20.22 59.56,20.22 C58.86,20.22 58.14,20.02 58.14,19.15 C58.14,18.9 58.18,18.69 58.32,18.04 L58.76,15.94 L58.08,15.94 L58.3,14.92 Z" id="Path"></path>
                    <path d="M65.46,17.71 C65.48,18.33 65.51,18.99 66.88,18.99 C67.38,18.99 68.24,18.86 68.24,18.11 C68.24,17.6 67.81,17.42 67.03,17.08 C65.79,16.54 64.92,16.16 64.92,14.92 C64.92,14.06 65.46,12.82 67.47,12.82 C68.84,12.82 70.07,13.41 70.18,14.98 L68.77,15.05 C68.69,14.22 68.13,13.99 67.46,13.99 C67.21,13.99 66.33,13.99 66.33,14.74 C66.33,15.25 66.81,15.46 67.63,15.81 C68.86,16.34 69.7,16.71 69.7,17.93 C69.7,18.98 68.89,20.22 66.87,20.22 C65.85,20.22 64.56,19.9 64.2,18.78 C64.07,18.37 64.05,17.97 64.06,17.78 L65.46,17.71 Z" id="Path"></path>
                    <path d="M75.41,18.37 C74.99,19.49 74.14,20.22 72.88,20.22 C71.3,20.22 70.73,19.08 70.73,18 C70.73,16.21 71.91,14.79 73.69,14.79 C75.1,14.79 75.7,15.67 75.78,16.53 L74.44,16.67 C74.42,16.48 74.34,15.83 73.6,15.83 C72.51,15.83 72.12,17.34 72.12,18.17 C72.12,18.84 72.52,19.12 72.91,19.12 C73.17,19.12 73.75,18.98 74.04,18.15 L75.41,18.37 Z" id="Path"></path>
                    <path d="M79.21,14.79 C81,14.79 81.64,15.95 81.64,17.13 C81.64,18.7 80.57,20.22 78.68,20.22 C77.06,20.22 76.27,19.16 76.27,17.95 C76.27,16.59 76.98,14.79 79.21,14.79 Z M79.21,15.85 C78.01,15.85 77.66,17.31 77.66,17.93 C77.66,18.52 78,19.16 78.73,19.16 C79.74,19.16 80.25,17.9 80.25,16.95 C80.25,16.45 79.97,15.85 79.21,15.85 Z" id="Shape"></path>
                    <path d="M84.64,14.92 L84,17.99 C83.99,18 83.99,18.04 83.98,18.08 C83.93,18.31 83.88,18.52 83.88,18.67 C83.88,18.94 84.09,19.22 84.47,19.22 C85.03,19.22 85.46,18.71 85.52,18.64 C85.85,18.25 85.95,17.77 86.04,17.38 L86.55,14.92 L87.95,14.92 L86.87,20.1 L85.56,20.1 L85.71,19.42 L85.69,19.4 C85.15,19.93 84.5,20.22 83.84,20.22 C82.62,20.22 82.47,19.24 82.47,18.87 C82.47,18.61 82.51,18.38 82.63,17.81 L83.24,14.92 L84.64,14.92 Z" id="Path"></path>
                    <path d="M88.86,14.92 L89.54,14.92 L89.71,14.09 L91.31,13.12 L90.94,14.92 L91.8,14.92 L91.58,15.94 L90.72,15.94 L90.27,18.13 C90.26,18.15 90.25,18.23 90.23,18.31 C90.17,18.56 90.15,18.68 90.15,18.8 C90.15,19.14 90.46,19.14 90.62,19.14 C90.71,19.14 91.03,19.11 91.08,19.11 L90.86,20.15 C90.61,20.2 90.41,20.22 90.12,20.22 C89.42,20.22 88.7,20.02 88.7,19.15 C88.7,18.9 88.74,18.69 88.88,18.04 L89.32,15.94 L88.64,15.94 L88.86,14.92 Z" id="Path"></path>
                    <path d="M97.89,20.1 L98.01,19.56 L97.99,19.54 C97.72,19.82 97.22,20.22 96.38,20.22 C95.27,20.22 94.58,19.44 94.58,18.05 C94.58,16.38 95.59,14.79 97.14,14.79 C98.18,14.79 98.58,15.43 98.71,15.62 L99.27,12.94 L100.67,12.94 L99.17,20.1 L97.89,20.1 L97.89,20.1 Z M96.91,19.16 C97.94,19.16 98.34,17.83 98.34,17.08 C98.34,16.42 97.94,15.87 97.34,15.87 C96.44,15.87 95.94,17.08 95.94,17.99 C95.94,18.63 96.28,19.16 96.91,19.16 Z" id="Shape"></path>
                    <path d="M102.06,17.94 C102.02,18.75 102.49,19.22 103.07,19.22 C103.77,19.22 104.08,18.66 104.16,18.5 L105.42,18.71 C104.81,19.96 103.78,20.22 103.06,20.22 C101.62,20.22 100.71,19.21 100.71,17.81 C100.71,16.51 101.54,14.79 103.6,14.79 C105.24,14.79 105.67,16.05 105.67,17.03 C105.67,17.17 105.66,17.6 105.58,17.94 L102.06,17.94 Z M104.39,17.09 C104.42,16.4 104.17,15.79 103.44,15.79 C102.63,15.79 102.29,16.6 102.19,17.09 L104.39,17.09 Z" id="Shape"></path>
                    <path d="M110.47,17.71 C110.49,18.33 110.52,18.99 111.89,18.99 C112.39,18.99 113.25,18.86 113.25,18.11 C113.25,17.6 112.82,17.42 112.04,17.08 C110.8,16.54 109.93,16.16 109.93,14.92 C109.93,14.06 110.47,12.82 112.48,12.82 C113.85,12.82 115.08,13.41 115.19,14.98 L113.78,15.05 C113.7,14.22 113.14,13.99 112.47,13.99 C112.22,13.99 111.34,13.99 111.34,14.74 C111.34,15.25 111.82,15.46 112.64,15.81 C113.87,16.34 114.71,16.71 114.71,17.93 C114.71,18.98 113.9,20.22 111.88,20.22 C110.86,20.22 109.57,19.9 109.21,18.78 C109.08,18.37 109.06,17.97 109.07,17.78 L110.47,17.71 Z" id="Path"></path>
                    <path d="M117.98,14.92 L117.34,17.99 C117.33,18 117.33,18.04 117.32,18.08 C117.27,18.31 117.22,18.52 117.22,18.67 C117.22,18.94 117.43,19.22 117.81,19.22 C118.37,19.22 118.8,18.71 118.86,18.64 C119.19,18.25 119.29,17.77 119.38,17.38 L119.89,14.92 L121.29,14.92 L120.21,20.1 L118.9,20.1 L119.05,19.42 L119.03,19.4 C118.49,19.93 117.84,20.22 117.18,20.22 C115.96,20.22 115.81,19.24 115.81,18.87 C115.81,18.61 115.85,18.38 115.97,17.81 L116.58,14.92 L117.98,14.92 Z" id="Path"></path>
                    <path d="M124.11,14.92 L123.03,20.1 L121.63,20.1 L122.71,14.92 L124.11,14.92 Z M124.52,12.94 L124.25,14.21 L122.85,14.21 L123.12,12.94 L124.52,12.94 Z" id="Shape"></path>
                    <path d="M125.61,18.43 C125.78,18.86 126.04,19.25 126.79,19.25 C127.29,19.25 127.76,19 127.76,18.65 C127.76,18.37 127.66,18.34 126.7,18.01 C125.82,17.71 125.03,17.44 125.03,16.47 C125.03,15.6 125.79,14.79 127.39,14.79 C128.12,14.79 129.28,14.94 129.55,16.15 L128.25,16.38 C128.03,15.76 127.33,15.76 127.17,15.76 C126.59,15.76 126.35,15.99 126.35,16.24 C126.35,16.55 126.61,16.63 127.33,16.84 C128.11,17.07 129.19,17.38 129.19,18.4 C129.19,19.1 128.65,20.22 126.82,20.22 C125.49,20.22 124.58,19.76 124.25,18.65 L125.61,18.43 Z" id="Path"></path>
                    <path d="M131.16,18.43 C131.33,18.86 131.59,19.25 132.34,19.25 C132.84,19.25 133.31,19 133.31,18.65 C133.31,18.37 133.21,18.34 132.25,18.01 C131.37,17.71 130.58,17.44 130.58,16.47 C130.58,15.6 131.34,14.79 132.94,14.79 C133.67,14.79 134.83,14.94 135.1,16.15 L133.8,16.38 C133.58,15.76 132.88,15.76 132.72,15.76 C132.14,15.76 131.9,15.99 131.9,16.24 C131.9,16.55 132.16,16.63 132.88,16.84 C133.66,17.07 134.74,17.38 134.74,18.4 C134.74,19.1 134.2,20.22 132.37,20.22 C131.04,20.22 130.13,19.76 129.8,18.65 L131.16,18.43 Z" id="Path"></path>
                    <path d="M137.08,17.94 C137.04,18.75 137.51,19.22 138.09,19.22 C138.79,19.22 139.1,18.66 139.18,18.5 L140.44,18.71 C139.83,19.96 138.8,20.22 138.08,20.22 C136.64,20.22 135.73,19.21 135.73,17.81 C135.73,16.51 136.56,14.79 138.62,14.79 C140.26,14.79 140.69,16.05 140.69,17.03 C140.69,17.17 140.68,17.6 140.6,17.94 L137.08,17.94 Z M139.41,17.09 C139.44,16.4 139.19,15.79 138.46,15.79 C137.65,15.79 137.31,16.6 137.21,17.09 L139.41,17.09 Z" id="Shape"></path>
                    <polygon id="Path" points="17.43 32.1 17.17 26.12 17.15 26.12 16.02 32.1 14.69 32.1 16.19 24.94 18.29 24.94 18.5 29.96 18.52 29.96 20.95 24.94 23.07 24.94 21.57 32.1 20.23 32.1 21.64 26.18 21.62 26.16 18.82 32.1"></polygon>
                    <path d="M26.16,26.79 C27.95,26.79 28.59,27.95 28.59,29.13 C28.59,30.7 27.52,32.22 25.63,32.22 C24.01,32.22 23.22,31.16 23.22,29.95 C23.22,28.59 23.93,26.79 26.16,26.79 Z M26.16,27.85 C24.96,27.85 24.61,29.31 24.61,29.93 C24.61,30.52 24.95,31.16 25.68,31.16 C26.69,31.16 27.2,29.9 27.2,28.95 C27.2,28.45 26.92,27.85 26.16,27.85 Z" id="Shape"></path>
                    <path d="M30.35,32.1 L29.31,26.92 L30.68,26.92 L31.05,29.18 C31.06,29.21 31.07,29.29 31.09,29.39 C31.14,29.71 31.2,30.03 31.22,30.4 L31.24,30.4 C31.27,30.31 31.3,30.26 31.41,30.06 L31.61,29.7 C31.69,29.54 31.81,29.32 31.94,29.1 L33.23,26.92 L34.74,26.92 L31.55,32.1 L30.35,32.1 L30.35,32.1 Z" id="Path"></path>
                    <path d="M36.98,26.92 L35.9,32.1 L34.5,32.1 L35.58,26.92 L36.98,26.92 Z M37.4,24.94 L37.13,26.21 L35.73,26.21 L36,24.94 L37.4,24.94 Z" id="Shape"></path>
                    <path d="M39.69,26.92 L39.55,27.52 L39.57,27.54 C39.81,27.3 40.36,26.79 41.17,26.79 C41.59,26.79 42.32,26.88 42.48,27.71 C42.81,27.23 43.51,26.79 44.3,26.79 C45.2,26.79 45.61,27.34 45.61,28 C45.61,28.25 45.54,28.61 45.48,28.93 L44.81,32.1 L43.41,32.1 L44.07,28.93 C44.08,28.9 44.1,28.8 44.12,28.71 C44.17,28.48 44.2,28.36 44.2,28.26 C44.2,28.08 44.12,27.79 43.68,27.79 C43.31,27.79 42.97,28.04 42.73,28.37 C42.45,28.76 42.31,29.39 42.24,29.75 L41.75,32.1 L40.34,32.1 L41.02,28.88 C41.09,28.52 41.11,28.43 41.11,28.26 C41.11,27.96 40.89,27.79 40.59,27.79 C40.16,27.79 39.81,28.14 39.64,28.37 C39.39,28.72 39.31,29.12 39.18,29.72 L38.68,32.1 L37.28,32.1 L38.37,26.92 L39.69,26.92 L39.69,26.92 Z" id="Path"></path>
                    <path d="M47.72,29.94 C47.68,30.75 48.15,31.22 48.73,31.22 C49.43,31.22 49.74,30.66 49.82,30.5 L51.08,30.71 C50.47,31.96 49.44,32.22 48.72,32.22 C47.28,32.22 46.37,31.21 46.37,29.81 C46.37,28.51 47.2,26.79 49.26,26.79 C50.9,26.79 51.33,28.05 51.33,29.03 C51.33,29.17 51.32,29.6 51.24,29.94 L47.72,29.94 Z M50.06,29.09 C50.09,28.4 49.84,27.79 49.11,27.79 C48.3,27.79 47.96,28.6 47.86,29.09 L50.06,29.09 Z" id="Shape"></path>
                    <path d="M54.14,26.92 L54,27.57 L54.02,27.59 C54.43,27.22 55.01,26.79 55.85,26.79 C56.88,26.79 57.22,27.51 57.22,28.13 C57.22,28.41 57.15,28.77 57.07,29.16 L56.45,32.1 L55.05,32.1 L55.67,29.15 C55.67,29.13 55.68,29.06 55.7,28.99 C55.72,28.91 55.74,28.81 55.74,28.79 C55.8,28.51 55.8,28.44 55.8,28.37 C55.8,27.84 55.35,27.79 55.2,27.79 C54.77,27.79 54.33,28.15 54.07,28.49 C53.81,28.85 53.75,29.18 53.58,29.97 L53.13,32.1 L51.73,32.1 L52.82,26.92 L54.14,26.92 L54.14,26.92 Z" id="Path"></path>
                    <path d="M58.41,26.92 L59.09,26.92 L59.26,26.09 L60.86,25.12 L60.49,26.92 L61.35,26.92 L61.13,27.94 L60.27,27.94 L59.82,30.13 C59.81,30.15 59.8,30.23 59.78,30.31 C59.72,30.56 59.7,30.68 59.7,30.8 C59.7,31.14 60.01,31.14 60.17,31.14 C60.26,31.14 60.58,31.11 60.63,31.11 L60.41,32.15 C60.16,32.2 59.96,32.22 59.67,32.22 C58.97,32.22 58.25,32.02 58.25,31.15 C58.25,30.9 58.29,30.69 58.43,30.04 L58.87,27.94 L58.19,27.94 L58.41,26.92 Z" id="Path"></path>
                    <path d="M64.31,26.79 C66.1,26.79 66.74,27.95 66.74,29.13 C66.74,30.7 65.67,32.22 63.78,32.22 C62.16,32.22 61.37,31.16 61.37,29.95 C61.37,28.59 62.08,26.79 64.31,26.79 Z M64.31,27.85 C63.11,27.85 62.76,29.31 62.76,29.93 C62.76,30.52 63.1,31.16 63.83,31.16 C64.84,31.16 65.35,29.9 65.35,28.95 C65.35,28.45 65.07,27.85 64.31,27.85 Z" id="Shape"></path>
                    <path d="M71.68,29.71 C71.7,30.33 71.73,30.99 73.1,30.99 C73.6,30.99 74.46,30.86 74.46,30.11 C74.46,29.6 74.03,29.42 73.25,29.08 C72.01,28.54 71.14,28.16 71.14,26.92 C71.14,26.06 71.68,24.82 73.69,24.82 C75.06,24.82 76.29,25.41 76.4,26.98 L74.99,27.05 C74.91,26.22 74.35,25.99 73.68,25.99 C73.43,25.99 72.55,25.99 72.55,26.74 C72.55,27.25 73.03,27.46 73.85,27.81 C75.08,28.34 75.92,28.71 75.92,29.93 C75.92,30.98 75.11,32.22 73.09,32.22 C72.07,32.22 70.78,31.9 70.42,30.78 C70.29,30.37 70.27,29.97 70.28,29.78 L71.68,29.71 Z" id="Path"></path>
                    <path d="M81.63,30.37 C81.21,31.49 80.36,32.22 79.1,32.22 C77.52,32.22 76.95,31.08 76.95,30 C76.95,28.21 78.13,26.79 79.91,26.79 C81.32,26.79 81.92,27.67 82,28.53 L80.66,28.67 C80.64,28.48 80.56,27.83 79.82,27.83 C78.73,27.83 78.34,29.34 78.34,30.17 C78.34,30.84 78.74,31.12 79.13,31.12 C79.39,31.12 79.97,30.98 80.26,30.15 L81.63,30.37 Z" id="Path"></path>
                    <path d="M85.43,26.79 C87.22,26.79 87.86,27.95 87.86,29.13 C87.86,30.7 86.79,32.22 84.9,32.22 C83.28,32.22 82.49,31.16 82.49,29.95 C82.49,28.59 83.2,26.79 85.43,26.79 Z M85.43,27.85 C84.23,27.85 83.88,29.31 83.88,29.93 C83.88,30.52 84.22,31.16 84.95,31.16 C85.96,31.16 86.47,29.9 86.47,28.95 C86.47,28.45 86.19,27.85 85.43,27.85 Z" id="Shape"></path>
                    <path d="M90.86,26.92 L90.22,29.99 C90.21,30 90.21,30.04 90.2,30.08 C90.15,30.31 90.1,30.52 90.1,30.67 C90.1,30.94 90.31,31.22 90.69,31.22 C91.25,31.22 91.68,30.71 91.74,30.64 C92.07,30.25 92.17,29.77 92.26,29.38 L92.77,26.92 L94.17,26.92 L93.09,32.1 L91.78,32.1 L91.93,31.42 L91.91,31.4 C91.37,31.93 90.72,32.22 90.06,32.22 C88.84,32.22 88.69,31.24 88.69,30.87 C88.69,30.61 88.73,30.38 88.85,29.81 L89.46,26.92 L90.86,26.92 Z" id="Path"></path>
                    <path d="M95.08,26.92 L95.76,26.92 L95.93,26.09 L97.53,25.12 L97.16,26.92 L98.02,26.92 L97.8,27.94 L96.94,27.94 L96.49,30.13 C96.48,30.15 96.47,30.23 96.45,30.31 C96.39,30.56 96.37,30.68 96.37,30.8 C96.37,31.14 96.68,31.14 96.84,31.14 C96.93,31.14 97.25,31.11 97.3,31.11 L97.08,32.15 C96.83,32.2 96.63,32.22 96.34,32.22 C95.64,32.22 94.92,32.02 94.92,31.15 C94.92,30.9 94.96,30.69 95.1,30.04 L95.54,27.94 L94.86,27.94 L95.08,26.92 Z" id="Path"></path>
                    <path d="M102.24,29.71 C102.26,30.33 102.29,30.99 103.66,30.99 C104.16,30.99 105.02,30.86 105.02,30.11 C105.02,29.6 104.59,29.42 103.81,29.08 C102.57,28.54 101.7,28.16 101.7,26.92 C101.7,26.06 102.24,24.82 104.25,24.82 C105.62,24.82 106.85,25.41 106.96,26.98 L105.55,27.05 C105.47,26.22 104.91,25.99 104.24,25.99 C103.99,25.99 103.11,25.99 103.11,26.74 C103.11,27.25 103.59,27.46 104.41,27.81 C105.64,28.34 106.48,28.71 106.48,29.93 C106.48,30.98 105.67,32.22 103.65,32.22 C102.63,32.22 101.34,31.9 100.98,30.78 C100.85,30.37 100.83,29.97 100.84,29.78 L102.24,29.71 Z" id="Path"></path>
                    <path d="M108.7,32.1 L107.66,26.92 L109.03,26.92 L109.4,29.18 C109.41,29.21 109.42,29.29 109.44,29.39 C109.49,29.71 109.55,30.03 109.57,30.4 L109.59,30.4 C109.62,30.31 109.65,30.26 109.76,30.06 L109.96,29.7 C110.04,29.54 110.16,29.32 110.29,29.1 L111.58,26.92 L113.09,26.92 L109.9,32.1 L108.7,32.1 L108.7,32.1 Z" id="Path"></path>
                    <path d="M115.33,26.92 L114.25,32.1 L112.85,32.1 L113.93,26.92 L115.33,26.92 Z M115.75,24.94 L115.48,26.21 L114.08,26.21 L114.35,24.94 L115.75,24.94 Z" id="Shape"></path>
                    <polygon id="Path" points="115.6 31.15 118.44 28.01 116.12 28.01 116.35 26.92 120.42 26.92 120.25 27.75 117.38 30.96 119.88 30.96 119.64 32.1 115.4 32.1"></polygon>
                    <polygon id="Path" points="120.6 31.15 123.44 28.01 121.12 28.01 121.35 26.92 125.42 26.92 125.25 27.75 122.38 30.96 124.88 30.96 124.64 32.1 120.4 32.1"></polygon>
                    <path d="M127.27,29.94 C127.23,30.75 127.7,31.22 128.28,31.22 C128.98,31.22 129.29,30.66 129.37,30.5 L130.63,30.71 C130.02,31.96 128.99,32.22 128.27,32.22 C126.83,32.22 125.92,31.21 125.92,29.81 C125.92,28.51 126.75,26.79 128.81,26.79 C130.45,26.79 130.88,28.05 130.88,29.03 C130.88,29.17 130.87,29.6 130.79,29.94 L127.27,29.94 Z M129.61,29.09 C129.64,28.4 129.39,27.79 128.66,27.79 C127.85,27.79 127.51,28.6 127.41,29.09 L129.61,29.09 Z" id="Shape"></path>
                    <path d="M133.61,26.92 L133.4,27.9 L133.42,27.92 C133.78,27.35 134.3,26.79 134.99,26.79 C135.29,26.79 135.5,26.88 135.64,26.94 L135.1,28.09 C135.02,28.06 134.91,28.02 134.7,28.02 C134.09,28.02 133.68,28.55 133.59,28.67 C133.25,29.11 133.1,29.82 132.96,30.47 L132.62,32.1 L131.22,32.1 L132.3,26.92 L133.61,26.92 L133.61,26.92 Z" id="Path"></path>
                    <path d="M138.12,26.79 C139.91,26.79 140.55,27.95 140.55,29.13 C140.55,30.7 139.48,32.22 137.59,32.22 C135.97,32.22 135.18,31.16 135.18,29.95 C135.18,28.59 135.89,26.79 138.12,26.79 Z M138.12,27.85 C136.92,27.85 136.57,29.31 136.57,29.93 C136.57,30.52 136.91,31.16 137.64,31.16 C138.65,31.16 139.16,29.9 139.16,28.95 C139.16,28.45 138.88,27.85 138.12,27.85 Z" id="Shape"></path>
                    <polygon id="Path" points="2.87 44.1 2.61 38.12 2.59 38.12 1.46 44.1 0.13 44.1 1.63 36.94 3.73 36.94 3.94 41.96 3.96 41.96 6.39 36.94 8.51 36.94 7.01 44.1 5.67 44.1 7.08 38.18 7.06 38.16 4.26 44.1"></polygon>
                    <path d="M11.6,38.79 C13.39,38.79 14.03,39.95 14.03,41.13 C14.03,42.7 12.96,44.22 11.07,44.22 C9.45,44.22 8.66,43.16 8.66,41.95 C8.66,40.59 9.37,38.79 11.6,38.79 Z M11.6,39.85 C10.4,39.85 10.05,41.31 10.05,41.93 C10.05,42.52 10.39,43.16 11.12,43.16 C12.13,43.16 12.64,41.9 12.64,40.95 C12.64,40.45 12.36,39.85 11.6,39.85 Z" id="Shape"></path>
                    <path d="M15.79,44.1 L14.75,38.92 L16.12,38.92 L16.49,41.18 C16.5,41.21 16.51,41.29 16.53,41.39 C16.58,41.71 16.64,42.03 16.66,42.4 L16.68,42.4 C16.71,42.31 16.74,42.26 16.85,42.06 L17.05,41.7 C17.13,41.54 17.25,41.32 17.38,41.1 L18.67,38.92 L20.18,38.92 L16.99,44.1 L15.79,44.1 Z" id="Path"></path>
                    <path d="M22.42,38.92 L21.34,44.1 L19.94,44.1 L21.02,38.92 L22.42,38.92 L22.42,38.92 Z M22.84,36.94 L22.57,38.21 L21.17,38.21 L21.44,36.94 L22.84,36.94 Z" id="Shape"></path>
                    <path d="M25.13,38.92 L24.99,39.52 L25.01,39.54 C25.25,39.3 25.8,38.79 26.61,38.79 C27.03,38.79 27.76,38.88 27.92,39.71 C28.25,39.23 28.95,38.79 29.74,38.79 C30.64,38.79 31.05,39.34 31.05,40 C31.05,40.25 30.98,40.61 30.92,40.93 L30.25,44.1 L28.85,44.1 L29.51,40.93 C29.52,40.9 29.54,40.8 29.56,40.71 C29.61,40.48 29.64,40.36 29.64,40.26 C29.64,40.08 29.56,39.79 29.12,39.79 C28.75,39.79 28.41,40.04 28.17,40.37 C27.89,40.76 27.75,41.39 27.68,41.75 L27.19,44.1 L25.78,44.1 L26.46,40.88 C26.53,40.52 26.55,40.43 26.55,40.26 C26.55,39.96 26.33,39.79 26.03,39.79 C25.6,39.79 25.25,40.14 25.08,40.37 C24.83,40.72 24.75,41.12 24.62,41.72 L24.12,44.1 L22.72,44.1 L23.81,38.92 L25.13,38.92 L25.13,38.92 Z" id="Path"></path>
                    <path d="M33.16,41.94 C33.12,42.75 33.59,43.22 34.17,43.22 C34.87,43.22 35.18,42.66 35.26,42.5 L36.52,42.71 C35.91,43.96 34.88,44.22 34.16,44.22 C32.72,44.22 31.81,43.21 31.81,41.81 C31.81,40.51 32.64,38.79 34.7,38.79 C36.34,38.79 36.77,40.05 36.77,41.03 C36.77,41.17 36.76,41.6 36.68,41.94 L33.16,41.94 Z M35.5,41.09 C35.53,40.4 35.28,39.79 34.55,39.79 C33.74,39.79 33.4,40.6 33.3,41.09 L35.5,41.09 Z" id="Shape"></path>
                    <path d="M39.58,38.92 L39.44,39.57 L39.46,39.59 C39.87,39.22 40.45,38.79 41.29,38.79 C42.32,38.79 42.66,39.51 42.66,40.13 C42.66,40.41 42.59,40.77 42.51,41.16 L41.89,44.1 L40.49,44.1 L41.11,41.15 C41.11,41.13 41.12,41.06 41.14,40.99 C41.16,40.91 41.18,40.81 41.18,40.79 C41.24,40.51 41.24,40.44 41.24,40.37 C41.24,39.84 40.79,39.79 40.64,39.79 C40.21,39.79 39.77,40.15 39.51,40.49 C39.25,40.85 39.19,41.18 39.02,41.97 L38.57,44.1 L37.17,44.1 L38.26,38.92 L39.58,38.92 L39.58,38.92 Z" id="Path"></path>
                    <path d="M43.85,38.92 L44.53,38.92 L44.7,38.09 L46.3,37.12 L45.93,38.92 L46.79,38.92 L46.57,39.94 L45.71,39.94 L45.26,42.13 C45.25,42.15 45.24,42.23 45.22,42.31 C45.16,42.56 45.14,42.68 45.14,42.8 C45.14,43.14 45.45,43.14 45.61,43.14 C45.7,43.14 46.02,43.11 46.07,43.11 L45.85,44.15 C45.6,44.2 45.4,44.22 45.11,44.22 C44.41,44.22 43.69,44.02 43.69,43.15 C43.69,42.9 43.73,42.69 43.87,42.04 L44.31,39.94 L43.63,39.94 L43.85,38.92 Z" id="Path"></path>
                    <path d="M50.93,36.94 L53.38,36.94 C54.15,36.94 54.65,36.95 55.15,37.16 C55.98,37.51 56.13,38.22 56.13,38.68 C56.13,39.94 55.06,40.28 54.77,40.36 L54.77,40.38 C55.63,40.61 55.94,41.26 55.94,41.79 C55.94,42.6 55.45,43.46 54.72,43.79 C54.04,44.1 53.38,44.1 52.81,44.1 L49.43,44.1 L50.93,36.94 Z M51.15,42.9 L52.57,42.9 C53.19,42.9 53.44,42.88 53.74,42.79 C54.14,42.67 54.44,42.26 54.44,41.85 C54.44,41.03 53.52,41.03 53.3,41.03 L51.54,41.03 L51.15,42.9 Z M51.8,39.83 L52.92,39.83 C53.49,39.83 53.84,39.8 54.15,39.67 C54.47,39.54 54.67,39.18 54.67,38.85 C54.67,38.14 54.01,38.14 53.29,38.14 L52.15,38.14 L51.8,39.83 Z" id="Shape"></path>
                    <path d="M57.24,40.27 C57.64,39.1 58.67,38.79 59.6,38.79 C61.43,38.79 61.57,39.87 61.57,40.18 C61.57,40.55 61.5,40.86 61.3,41.76 C61.28,41.84 61.18,42.28 61.17,42.37 C61.09,42.71 61.03,43.07 61.03,43.36 C61.03,43.66 61.07,43.84 61.14,44.1 L59.78,44.1 C59.71,43.86 59.7,43.77 59.68,43.51 C59.2,44.05 58.61,44.22 58.17,44.22 C57.37,44.22 56.68,43.67 56.68,42.71 C56.68,41.16 58.12,41.04 58.79,40.99 C59.34,40.94 59.85,40.89 60.13,40.79 C60.16,40.7 60.22,40.5 60.22,40.32 C60.22,39.94 59.87,39.79 59.5,39.79 C59.08,39.79 58.73,39.94 58.61,40.38 L57.24,40.27 Z M59.94,41.68 C59.85,41.71 59.81,41.72 59.61,41.74 C58.75,41.85 58,41.98 58,42.59 C58,42.86 58.19,43.17 58.64,43.17 C59.63,43.17 59.82,42.29 59.91,41.87 L59.94,41.68 Z" id="Shape"></path>
                    <path d="M62.74,38.92 L63.42,38.92 L63.59,38.09 L65.19,37.12 L64.82,38.92 L65.68,38.92 L65.46,39.94 L64.6,39.94 L64.15,42.13 C64.14,42.15 64.13,42.23 64.11,42.31 C64.05,42.56 64.03,42.68 64.03,42.8 C64.03,43.14 64.34,43.14 64.5,43.14 C64.59,43.14 64.91,43.11 64.96,43.11 L64.74,44.15 C64.49,44.2 64.29,44.22 64,44.22 C63.3,44.22 62.58,44.02 62.58,43.15 C62.58,42.9 62.62,42.69 62.76,42.04 L63.2,39.94 L62.52,39.94 L62.74,38.92 Z" id="Path"></path>
                    <path d="M66.07,38.92 L66.75,38.92 L66.92,38.09 L68.52,37.12 L68.15,38.92 L69.01,38.92 L68.79,39.94 L67.93,39.94 L67.48,42.13 C67.47,42.15 67.46,42.23 67.44,42.31 C67.38,42.56 67.36,42.68 67.36,42.8 C67.36,43.14 67.67,43.14 67.83,43.14 C67.92,43.14 68.24,43.11 68.29,43.11 L68.07,44.15 C67.82,44.2 67.62,44.22 67.33,44.22 C66.63,44.22 65.91,44.02 65.91,43.15 C65.91,42.9 65.95,42.69 66.09,42.04 L66.53,39.94 L65.85,39.94 L66.07,38.92 Z" id="Path"></path>
                    <path d="M69.46,40.27 C69.86,39.1 70.89,38.79 71.82,38.79 C73.65,38.79 73.79,39.87 73.79,40.18 C73.79,40.55 73.72,40.86 73.52,41.76 C73.5,41.84 73.4,42.28 73.39,42.37 C73.31,42.71 73.25,43.07 73.25,43.36 C73.25,43.66 73.29,43.84 73.36,44.1 L72,44.1 C71.93,43.86 71.92,43.77 71.9,43.51 C71.42,44.05 70.83,44.22 70.39,44.22 C69.59,44.22 68.9,43.67 68.9,42.71 C68.9,41.16 70.34,41.04 71.01,40.99 C71.56,40.94 72.07,40.89 72.35,40.79 C72.38,40.7 72.44,40.5 72.44,40.32 C72.44,39.94 72.09,39.79 71.72,39.79 C71.3,39.79 70.95,39.94 70.83,40.38 L69.46,40.27 Z M72.16,41.68 C72.07,41.71 72.03,41.72 71.83,41.74 C70.97,41.85 70.22,41.98 70.22,42.59 C70.22,42.86 70.41,43.17 70.86,43.17 C71.85,43.17 72.04,42.29 72.13,41.87 L72.16,41.68 Z" id="Shape"></path>
                    <path d="M75.59,42.43 C75.76,42.86 76.02,43.25 76.77,43.25 C77.27,43.25 77.74,43 77.74,42.65 C77.74,42.37 77.64,42.34 76.68,42.01 C75.8,41.71 75.01,41.44 75.01,40.47 C75.01,39.6 75.77,38.79 77.37,38.79 C78.1,38.79 79.26,38.94 79.53,40.15 L78.23,40.38 C78.01,39.76 77.31,39.76 77.15,39.76 C76.57,39.76 76.33,39.99 76.33,40.24 C76.33,40.55 76.59,40.63 77.31,40.84 C78.09,41.07 79.17,41.38 79.17,42.4 C79.17,43.1 78.63,44.22 76.8,44.22 C75.47,44.22 74.56,43.76 74.23,42.65 L75.59,42.43 Z" id="Path"></path>
                    <path d="M81.5,41.94 C81.46,42.75 81.93,43.22 82.51,43.22 C83.21,43.22 83.52,42.66 83.6,42.5 L84.86,42.71 C84.25,43.96 83.22,44.22 82.5,44.22 C81.06,44.22 80.15,43.21 80.15,41.81 C80.15,40.51 80.98,38.79 83.04,38.79 C84.68,38.79 85.11,40.05 85.11,41.03 C85.11,41.17 85.1,41.6 85.02,41.94 L81.5,41.94 Z M83.84,41.09 C83.87,40.4 83.62,39.79 82.89,39.79 C82.08,39.79 81.74,40.6 81.64,41.09 L83.84,41.09 Z" id="Shape"></path>
                    <path d="M87.92,38.92 L87.78,39.57 L87.8,39.59 C88.21,39.22 88.79,38.79 89.63,38.79 C90.66,38.79 91,39.51 91,40.13 C91,40.41 90.93,40.77 90.85,41.16 L90.23,44.1 L88.83,44.1 L89.45,41.15 C89.45,41.13 89.46,41.06 89.48,40.99 C89.5,40.91 89.52,40.81 89.52,40.79 C89.58,40.51 89.58,40.44 89.58,40.37 C89.58,39.84 89.13,39.79 88.98,39.79 C88.55,39.79 88.11,40.15 87.85,40.49 C87.59,40.85 87.53,41.18 87.36,41.97 L86.91,44.1 L85.51,44.1 L86.6,38.92 L87.92,38.92 L87.92,38.92 Z" id="Path"></path>
                    <path d="M95.11,44.1 L95.23,43.56 L95.21,43.54 C94.94,43.82 94.44,44.22 93.6,44.22 C92.49,44.22 91.8,43.44 91.8,42.05 C91.8,40.38 92.81,38.79 94.36,38.79 C95.4,38.79 95.8,39.43 95.93,39.62 L96.49,36.94 L97.89,36.94 L96.39,44.1 L95.11,44.1 L95.11,44.1 Z M94.13,43.16 C95.16,43.16 95.56,41.83 95.56,41.08 C95.56,40.42 95.16,39.87 94.56,39.87 C93.66,39.87 93.16,41.08 93.16,41.99 C93.16,42.63 93.5,43.16 94.13,43.16 Z" id="Shape"></path>
                    <path d="M98.36,40.27 C98.76,39.1 99.79,38.79 100.72,38.79 C102.55,38.79 102.69,39.87 102.69,40.18 C102.69,40.55 102.62,40.86 102.42,41.76 C102.4,41.84 102.3,42.28 102.29,42.37 C102.21,42.71 102.15,43.07 102.15,43.36 C102.15,43.66 102.19,43.84 102.26,44.1 L100.9,44.1 C100.83,43.86 100.82,43.77 100.8,43.51 C100.32,44.05 99.73,44.22 99.29,44.22 C98.49,44.22 97.8,43.67 97.8,42.71 C97.8,41.16 99.24,41.04 99.91,40.99 C100.46,40.94 100.97,40.89 101.25,40.79 C101.28,40.7 101.34,40.5 101.34,40.32 C101.34,39.94 100.99,39.79 100.62,39.79 C100.2,39.79 99.85,39.94 99.73,40.38 L98.36,40.27 Z M101.06,41.68 C100.97,41.71 100.93,41.72 100.73,41.74 C99.87,41.85 99.12,41.98 99.12,42.59 C99.12,42.86 99.31,43.17 99.76,43.17 C100.75,43.17 100.94,42.29 101.03,41.87 L101.06,41.68 Z" id="Shape"></path>
                    <path d="M104.49,42.43 C104.66,42.86 104.92,43.25 105.67,43.25 C106.17,43.25 106.64,43 106.64,42.65 C106.64,42.37 106.54,42.34 105.58,42.01 C104.7,41.71 103.91,41.44 103.91,40.47 C103.91,39.6 104.67,38.79 106.27,38.79 C107,38.79 108.16,38.94 108.43,40.15 L107.13,40.38 C106.91,39.76 106.21,39.76 106.05,39.76 C105.47,39.76 105.23,39.99 105.23,40.24 C105.23,40.55 105.49,40.63 106.21,40.84 C106.99,41.07 108.07,41.38 108.07,42.4 C108.07,43.1 107.53,44.22 105.7,44.22 C104.37,44.22 103.46,43.76 103.13,42.65 L104.49,42.43 Z" id="Path"></path>
                    <path d="M113.25,41.71 C113.27,42.33 113.3,42.99 114.67,42.99 C115.17,42.99 116.03,42.86 116.03,42.11 C116.03,41.6 115.6,41.42 114.82,41.08 C113.58,40.54 112.71,40.16 112.71,38.92 C112.71,38.06 113.25,36.82 115.26,36.82 C116.63,36.82 117.86,37.41 117.97,38.98 L116.56,39.05 C116.48,38.22 115.92,37.99 115.25,37.99 C115,37.99 114.12,37.99 114.12,38.74 C114.12,39.25 114.6,39.46 115.42,39.81 C116.65,40.34 117.49,40.71 117.49,41.93 C117.49,42.98 116.68,44.22 114.66,44.22 C113.64,44.22 112.35,43.9 111.99,42.78 C111.86,42.37 111.84,41.97 111.85,41.78 L113.25,41.71 Z" id="Path"></path>
                    <path d="M119.71,44.1 L118.67,38.92 L120.04,38.92 L120.41,41.18 C120.42,41.21 120.43,41.29 120.45,41.39 C120.5,41.71 120.56,42.03 120.58,42.4 L120.6,42.4 C120.63,42.31 120.66,42.26 120.77,42.06 L120.97,41.7 C121.05,41.54 121.17,41.32 121.3,41.1 L122.59,38.92 L124.1,38.92 L120.91,44.1 L119.71,44.1 Z" id="Path"></path>
                    <path d="M126.33,38.92 L125.25,44.1 L123.85,44.1 L124.93,38.92 L126.33,38.92 L126.33,38.92 Z M126.76,36.94 L126.49,38.21 L125.09,38.21 L125.36,36.94 L126.76,36.94 Z" id="Shape"></path>
                    <polygon id="Path" points="126.61 43.15 129.45 40.01 127.13 40.01 127.36 38.92 131.43 38.92 131.26 39.75 128.39 42.96 130.89 42.96 130.65 44.1 126.41 44.1"></polygon>
                    <path d="M133.97,38.92 L133.76,39.9 L133.78,39.92 C134.14,39.35 134.66,38.79 135.35,38.79 C135.65,38.79 135.86,38.88 136,38.94 L135.46,40.09 C135.38,40.06 135.27,40.02 135.06,40.02 C134.45,40.02 134.04,40.55 133.95,40.67 C133.61,41.11 133.46,41.82 133.32,42.47 L132.98,44.1 L131.58,44.1 L132.66,38.92 L133.97,38.92 L133.97,38.92 Z" id="Path"></path>
                    <path d="M136.16,40.27 C136.56,39.1 137.59,38.79 138.52,38.79 C140.35,38.79 140.49,39.87 140.49,40.18 C140.49,40.55 140.42,40.86 140.22,41.76 C140.2,41.84 140.1,42.28 140.09,42.37 C140.01,42.71 139.95,43.07 139.95,43.36 C139.95,43.66 139.99,43.84 140.06,44.1 L138.7,44.1 C138.63,43.86 138.62,43.77 138.6,43.51 C138.12,44.05 137.53,44.22 137.09,44.22 C136.29,44.22 135.6,43.67 135.6,42.71 C135.6,41.16 137.04,41.04 137.71,40.99 C138.26,40.94 138.77,40.89 139.05,40.79 C139.08,40.7 139.14,40.5 139.14,40.32 C139.14,39.94 138.79,39.79 138.42,39.79 C138,39.79 137.65,39.94 137.53,40.38 L136.16,40.27 Z M138.85,41.68 C138.76,41.71 138.72,41.72 138.52,41.74 C137.66,41.85 136.91,41.98 136.91,42.59 C136.91,42.86 137.1,43.17 137.55,43.17 C138.54,43.17 138.73,42.29 138.82,41.87 L138.85,41.68 Z" id="Shape"></path>
                </g>
                <g id="Group" transform="translate(159.000000, 0.000000)">
                    <path d="M0.75,35.24 L0.15,35.39 L0.29,35.99 C2.1,43.48 3.14,49.28 4.05,54.41 C6.49,68.09 8.11,77.13 21.22,100.9 L21.42,101.27 L21.84,101.22 C30.39,100.24 50.46,94.17 61.23,87.25 L61.62,87 L61.5,86.55 C55.43,65.11 56.28,47.76 57.9,28.9 L57.96,28.24 L57.29,28.22 C34.68,27.72 19.44,30.41 0.75,35.24 Z M56.61,29.46 C55.98,36.86 55.48,44.04 55.48,51.34 C55.48,62.37 56.63,73.69 60.19,86.43 C49.65,93.06 30.67,98.83 22.13,99.92 C9.31,76.62 7.71,67.67 5.3,54.19 C4.41,49.2 3.39,43.52 1.66,36.3 C19.78,31.65 34.75,29.04 56.61,29.46 Z" id="Shape"></path>
                    <path d="M72.12,1.4 C59.96,21.7 56.36,43.91 60.79,71.32 L60.86,71.77 L61.31,71.84 C72.32,73.51 101.41,77.1 116.16,76.85 L116.53,76.84 L116.7,76.51 C118.92,72.33 126.27,50.33 126.9,34.99 L126.91,34.71 L126.71,34.52 C117.36,25.43 92.8,8.31 72.86,1.13 L72.38,0.96 L72.12,1.4 Z M60.22,49.96 C60.22,32.33 64.41,16.91 72.94,2.5 C92.5,9.68 116.31,26.25 125.64,35.23 C124.96,50.05 118.1,70.88 115.76,75.6 C101.16,75.79 73.14,72.35 61.96,70.67 C60.81,63.42 60.22,56.54 60.22,49.96 Z" id="Shape"></path>
                    <path d="M113.06,37.07 C111.96,36.27 110.26,36.17 108.86,36.67 C104.06,37.97 100.96,43.37 96.56,45.67 C96.16,45.37 95.56,44.97 95.96,44.47 L101.56,37.07 C103.66,34.37 106.36,31.87 106.66,28.37 C106.86,26.47 106.36,24.97 105.16,23.67 C103.96,22.47 102.26,22.47 100.46,22.37 C94.76,23.87 88.16,22.97 82.26,22.37 C80.76,22.57 79.46,24.07 78.66,25.37 C75.66,33.07 83.96,37.97 88.06,43.57 L88.46,44.77 C86.86,45.47 85.46,43.17 83.96,42.37 C79.86,40.17 76.26,35.17 71.16,36.77 C66.16,39.27 69.46,45.17 69.16,49.37 C69.56,53.87 66.56,59.27 70.96,62.47 C77.86,65.87 82.66,58.37 87.76,54.87 C88.96,54.47 90.16,55.27 90.76,56.27 C91.26,61.87 90.26,68.27 94.86,71.87 C95.36,71.17 95.96,70.37 96.06,69.47 C92.86,65.97 92.56,60.87 93.16,56.07 C93.76,55.27 94.56,54.87 95.46,55.27 C100.86,58.57 105.16,66.47 112.16,64.07 C115.76,61.97 114.26,57.57 113.96,54.17 C111.66,48.07 118.06,42.27 113.06,37.07 Z M92.06,50.57 C91.76,50.47 91.66,50.17 91.36,49.97 L91.96,49.07 C92.26,49.17 92.46,49.47 92.66,49.67 C92.56,49.97 92.36,50.27 92.06,50.57 Z M112.16,54.97 C112.26,57.17 113.56,59.87 112.06,61.87 C110.96,62.87 109.16,63.07 107.96,62.47 C103.16,60.47 99.86,54.97 94.96,53.17 L93.06,53.67 C92.76,52.47 93.56,51.77 93.76,50.77 L109.16,50.57 C109.66,50.07 110.06,49.27 109.46,48.77 L108.86,48.27 L93.76,48.27 L92.96,47.17 L93.06,28.67 C92.66,28.17 92.06,27.77 91.36,28.07 L90.86,28.57 L91.16,47.27 L90.06,48.37 L74.36,48.27 C73.56,48.87 73.76,49.77 74.16,50.47 C79.36,50.87 84.86,50.57 90.26,50.67 C90.36,51.67 91.06,52.47 90.76,53.57 C85.36,51.07 82.26,58.57 77.76,60.47 C76.36,61.47 74.36,61.77 72.66,61.27 C71.46,60.87 70.96,59.47 70.56,58.47 C70.26,55.47 71.26,52.67 71.16,49.57 C71.86,45.77 67.86,40.17 72.66,38.17 L74.56,38.47 C78.96,40.87 82.96,44.37 87.26,46.97 C88.66,47.37 89.76,46.47 90.26,45.37 C90.96,43.67 89.36,42.57 88.46,41.27 C85.06,36.37 77.06,31.77 81.06,25.27 C82.36,23.57 84.96,24.37 86.66,24.47 C90.96,25.47 96.26,25.37 100.36,24.17 C102.06,24.07 103.76,24.57 104.56,26.07 C105.76,30.77 101.56,33.77 99.06,37.27 C97.16,40.07 93.26,42.57 94.36,46.27 C95.26,47.37 96.56,47.67 97.86,47.27 C102.06,44.67 105.16,39.67 109.86,38.27 C111.26,37.97 112.56,38.77 112.96,39.97 C113.16,44.87 110.76,49.77 112.16,54.97 Z" id="Shape"></path>
                    <path d="M54.76,60.37 C54.76,58.77 54.46,57.17 53.26,56.07 C50.86,53.87 47.56,53.17 44.46,53.87 C40.16,55.07 37.16,59.27 36.36,63.37 C35.86,64.77 36.16,66.57 35.56,67.67 C34.06,60.47 39.06,55.37 41.16,49.37 C42.66,41.97 35.96,37.07 32.86,31.27 C29.56,37.67 21.66,43.27 25.36,51.37 C28.16,56.37 31.26,61.27 30.36,67.57 L30.06,67.67 C29.66,65.47 29.56,63.07 28.76,60.97 C27.46,57.27 24.06,54.37 20.26,53.77 C17.06,53.27 14.26,54.37 12.06,56.57 C7.96,61.37 15.86,64.97 12.66,69.77 C13.06,70.07 13.56,70.37 14.16,70.47 C18.76,71.97 18.76,66.47 22.26,65.27 C23.56,64.77 24.56,65.67 25.36,66.67 C27.26,68.47 23.66,68.27 23.96,69.97 C23.56,71.17 24.16,72.17 24.66,73.07 C25.86,74.37 27.76,73.77 29.36,74.07 L29.36,74.67 C27.26,77.57 23.06,76.17 20.96,79.07 C19.96,81.07 20.16,84.07 21.66,85.57 C23.46,84.97 25.86,85.17 27.46,85.87 L26.86,87.47 C25.66,91.77 30.56,93.47 32.86,96.17 C34.56,94.37 36.76,93.47 38.26,91.37 C39.46,89.67 38.96,87.27 38.46,85.57 C40.36,84.97 42.36,85.17 44.26,85.47 C45.56,83.87 45.76,81.27 44.96,79.37 C43.46,76.87 40.26,77.17 37.96,75.97 C37.26,75.67 36.16,74.87 36.56,73.97 C38.16,73.77 40.16,74.47 41.26,72.87 C41.76,71.97 42.16,70.97 41.86,69.87 C41.56,68.77 40.46,68.37 39.96,67.57 C40.26,66.57 41.06,65.87 41.96,65.27 C44.86,64.67 46.36,67.77 47.76,69.77 C49.36,70.87 51.46,70.47 53.36,70.27 C50.46,66.87 54.66,63.87 54.76,60.37 Z M27.16,50.77 C23.96,44.47 30.06,39.67 32.86,34.67 C35.46,39.27 40.46,43.07 39.36,48.87 C36.66,54.87 32.56,60.27 33.56,67.87 L32.36,67.87 C33.06,61.27 30.26,55.97 27.16,50.77 Z M23.46,63.27 C20.46,63.07 18.26,65.97 16.86,68.27 C16.26,68.37 15.86,68.87 15.16,68.67 C16.76,64.17 9.96,61.17 14.26,57.07 C16.06,55.77 18.36,55.27 20.76,55.67 C22.56,56.37 24.46,57.37 25.66,59.07 C27.16,61.67 28.06,64.47 28.06,67.67 C27.46,65.97 25.66,63.67 23.46,63.27 Z M42.96,79.57 C43.86,80.57 43.56,82.27 43.26,83.47 C40.66,82.97 38.16,83.67 35.86,84.27 C36.06,86.07 37.76,87.87 36.96,89.87 C35.96,91.47 34.36,92.47 32.96,93.47 C31.36,92.37 29.16,91.17 28.66,89.17 C28.36,87.27 29.56,86.07 30.06,84.47 C27.86,83.77 25.26,82.97 22.56,83.47 C22.16,82.47 22.06,80.97 22.66,80.07 C25.36,77.97 30.76,78.77 31.26,74.07 L34.56,74.07 C34.96,78.47 39.96,78.17 42.96,79.57 Z M39.76,71.67 L38.96,72.07 L26.46,72.07 C25.66,71.77 25.66,70.87 25.86,70.27 L26.36,69.77 L39.56,69.87 C40.16,70.27 40.16,71.17 39.76,71.67 Z M44.26,63.47 C42.96,62.97 41.36,63.37 40.26,64.07 C39.06,65.07 38.26,66.47 37.86,67.87 C37.76,64.17 38.66,60.47 41.26,57.77 C43.96,55.17 48.86,54.57 51.76,57.17 C52.96,58.27 53.06,60.17 52.66,61.67 C51.36,63.77 50.26,65.97 50.56,68.57 C47.66,68.57 47.36,64.07 44.26,63.47 Z" id="Shape"></path>
                </g>
            </g>
        </g>
    </g>
</svg>